<svg width="117" height="104" viewBox="0 0 117 104" fill="none" xmlns="http://www.w3.org/2000/svg">
<path d="M115.911 18.2973C82.4514 17.7308 57.4492 44.1103 48.2622 57.3755C47.8693 57.9427 47.0509 57.9948 46.5925 57.4791L30.3909 39.2522C28.5895 37.2257 25.8802 36.2558 23.2019 36.6787L22.5922 36.7749C19.808 37.2145 17.5561 39.2757 16.8724 42.0103C16.3246 44.2015 16.8591 46.518 18.3204 48.2403C26.4152 57.7812 40 73.6193 46.7969 81.1378C47.6355 82.0654 49.1232 81.8798 49.7573 80.802C64.4254 55.8716 92.641 31.3233 116.274 20.1639C117.22 19.717 116.957 18.3151 115.911 18.2973Z" fill="#93E522"/>
<path d="M10 6H93C95.2091 6 97 7.79086 97 10V11C97 12.6569 98.3431 14 100 14C101.657 14 103 12.6569 103 11V10C103 4.47715 98.5229 0 93 0H10C4.47715 0 0 4.47715 0 10V94C0 99.5229 4.47715 104 10 104H93C98.5229 104 103 99.5229 103 94V39C103 37.3431 101.657 36 100 36C98.3431 36 97 37.3431 97 39V94C97 96.2091 95.2091 98 93 98H10C7.79086 98 6 96.2091 6 94V10C6 7.79086 7.79086 6 10 6Z" fill="#93E522"/>
</svg>
