<svg width="32" height="15" viewBox="0 0 32 15" fill="none" xmlns="http://www.w3.org/2000/svg">
<g id="Discover">
<path id="Stripe" d="M11.7344 14.5L31.4844 8.75V9.5C31.4844 12.2614 29.2458 14.5 26.4844 14.5H11.7344Z" fill="#FD6020"/>
<path id="DISC-VER" fill-rule="evenodd" clip-rule="evenodd" d="M27.7353 0.610855C28.8219 0.610855 29.4195 1.0944 29.4195 2.00776C29.4738 2.70621 28.9849 3.2972 28.333 3.40466L29.7998 5.39255H28.6589L27.4094 3.45838H27.3007V5.39255H26.3772V0.610855H27.7353ZM27.3007 2.81365H27.5724C28.17 2.81365 28.4416 2.54501 28.4416 2.06147C28.4416 1.63166 28.17 1.36302 27.5724 1.36302H27.3007V2.81365ZM23.1718 5.39255H25.7795V4.58664H24.0954V3.29719H25.7252V2.49129H24.0954V1.41675H25.7795V0.610847H23.1718V5.39255V5.39255ZM20.4554 3.83446L19.2059 0.610847H18.228L20.2381 5.5H20.7271L22.7372 0.610847H21.7593L20.4554 3.83446V3.83446ZM9.42688 3.02856C9.42688 4.37173 10.5134 5.5 11.8716 5.5C12.3062 5.5 12.6865 5.39255 13.0668 5.23137V4.15683C12.7952 4.47919 12.4149 4.6941 11.9803 4.6941C11.111 4.6941 10.4048 4.04937 10.4048 3.18974V3.08229C10.3504 2.22266 11.0567 1.47048 11.926 1.41675C12.3606 1.41675 12.7952 1.63166 13.0668 1.95402V0.879482C12.7409 0.664574 12.3062 0.610847 11.926 0.610847C10.5134 0.503393 9.42688 1.63166 9.42688 3.02856V3.02856ZM7.74271 2.43756C7.19944 2.22266 7.03645 2.1152 7.03645 1.84657C7.09078 1.52421 7.36242 1.25557 7.68839 1.3093C7.96003 1.3093 8.23166 1.47048 8.44898 1.68539L8.93793 1.04066C8.55763 0.718302 8.06868 0.503394 7.57973 0.503394C6.81914 0.449667 6.16721 1.04066 6.11288 1.79284V1.84657C6.11288 2.49129 6.38452 2.86738 7.25376 3.13601C7.47108 3.18974 7.68839 3.2972 7.9057 3.40465C8.06868 3.5121 8.17734 3.67328 8.17734 3.88819C8.17734 4.26428 7.85137 4.58664 7.5254 4.58664H7.47108C7.03645 4.58664 6.65616 4.31801 6.49317 3.94192L5.89557 4.53292C6.22154 5.12391 6.87347 5.44627 7.5254 5.44627C8.39465 5.5 9.10091 4.85528 9.15524 3.99565V3.83446C9.10091 3.18974 8.82927 2.86738 7.74271 2.43756V2.43756ZM4.5917 5.39255H5.51527V0.610847H4.5917V5.39255V5.39255ZM0.299805 0.610855H1.658H1.92964C3.23351 0.664582 4.26574 1.73912 4.21141 3.02857C4.21141 3.72702 3.88544 4.37174 3.34216 4.85528C2.85321 5.23137 2.25561 5.44628 1.658 5.39255H0.299805V0.610855ZM1.49501 4.58665C1.92964 4.64037 2.41859 4.47919 2.74455 4.21056C3.07052 3.8882 3.2335 3.45838 3.2335 2.97484C3.2335 2.54502 3.07052 2.11521 2.74455 1.79285C2.41859 1.52421 1.92964 1.36303 1.49501 1.41676H1.22337V4.58665H1.49501Z" fill="black"/>
<path id="O" fill-rule="evenodd" clip-rule="evenodd" d="M15.8379 0.5C14.4798 0.5 13.3389 1.57454 13.3389 2.97144C13.3389 4.31461 14.4254 5.44288 15.8379 5.49661C17.2505 5.55033 18.337 4.42207 18.3914 3.02517C18.337 1.62827 17.2505 0.5 15.8379 0.5V0.5Z" fill="#FD6020"/>
</g>
</svg>
