<svg width="629" height="74" viewBox="0 0 629 74" fill="none" xmlns="http://www.w3.org/2000/svg">
<path d="M166.533 55.4811V24.1995H172.912V49.9387H198.078V55.4811H166.533Z" fill="black"/>
<path d="M206.017 55.4811V24.1995H212.397V55.4811H206.017Z" fill="black"/>
<path d="M235.231 55.4811V29.742H220.264V24.1995H256.579V29.742H241.611V55.4811H235.231Z" fill="black"/>
<path d="M333.164 55.4811V29.742H318.197V24.1995H354.511V29.742H339.544V55.4811H333.164Z" fill="black"/>
<path d="M362.404 55.4811V24.1995H384.426C391.12 24.1995 395.614 27.8207 395.614 32.8226C395.614 36.7109 393.053 39.5244 389.725 40.4623C393.413 40.4623 394.847 42.071 394.847 45.0669V55.4811H388.467V46.8124C388.467 44.3961 387.524 43.6862 385.094 43.6862H368.784V55.4811H362.404ZM368.784 38.1437H383.568C387.072 38.1437 389.142 36.4438 389.142 33.8973C389.142 31.2205 387.072 29.742 383.568 29.742H368.784V38.1437Z" fill="black"/>
<path d="M450.485 55.4811V24.1995H456.865V55.4811H450.485Z" fill="black"/>
<path d="M496.651 24.206H503.031V55.4876H495.033L474.406 31.6242V55.4876H468.027V24.206H476.024L496.651 48.0694V24.206Z" fill="black"/>
<path d="M514.206 55.4811V24.1995H520.586V55.4811H514.206Z" fill="black"/>
<path d="M560.372 24.206H566.752V55.4876H558.754L538.127 31.6242V55.4876H531.747V24.206H539.745L560.372 48.0694V24.206Z" fill="black"/>
<path d="M575.896 39.8436C575.896 30.4584 583.671 23.7566 596.974 23.7566C608.568 23.7566 614.909 28.7129 615.806 34.9263H608.614C608.162 32.7379 605.11 29.2926 597.381 29.2926H596.483C588.217 29.2926 582.374 33.0896 582.374 39.837C582.374 46.5845 587.811 50.3815 596.306 50.3815H597.204C605.745 50.3815 610.147 47.4311 610.147 44.4352V44.2984H596.306V38.7559H612.263C615.269 38.7559 616.533 40.7684 616.533 43.0023V55.4681H610.153V51.404C608.581 53.2798 604.763 55.9175 596.765 55.9175C583.147 55.9175 575.915 49.2157 575.915 39.8305L575.896 39.8436Z" fill="black"/>
<path d="M15.6807 55.4811V24.1995H22.0606V55.4811H15.6807Z" fill="black"/>
<path d="M74.4494 55.4811V24.1995H80.8293V55.4811H74.4494Z" fill="black"/>
<path d="M100.945 24.8377C102.255 25.5737 103.297 26.5702 104.063 27.8337C104.829 29.0972 105.216 30.4649 105.216 31.9499C105.216 33.4348 104.829 34.8025 104.063 36.066C103.297 37.3296 102.255 38.3261 100.945 39.062C99.6285 39.798 98.2005 40.1627 96.6481 40.1627C95.0957 40.1627 93.6678 39.798 92.3512 39.062C91.0346 38.3261 89.9996 37.3296 89.2333 36.066C88.4669 34.8025 88.0804 33.4348 88.0804 31.9499C88.0804 30.4649 88.4669 29.0972 89.2333 27.8337C89.9996 26.5702 91.0411 25.5737 92.3512 24.8377C93.6612 24.1018 95.0957 23.737 96.6481 23.737C98.2005 23.737 99.6285 24.1018 100.945 24.8377ZM100.218 37.8701C101.312 37.2514 102.177 36.4242 102.818 35.3692C103.46 34.3206 103.781 33.1808 103.781 31.9499C103.781 30.7189 103.46 29.5791 102.818 28.5306C102.177 27.482 101.312 26.6483 100.218 26.0296C99.1241 25.4109 97.9385 25.1048 96.6547 25.1048C95.3708 25.1048 94.1852 25.4109 93.0914 26.0296C91.9975 26.6483 91.1328 27.4755 90.4909 28.5306C89.849 29.5791 89.528 30.7189 89.528 31.9499C89.528 33.1808 89.849 34.3206 90.4909 35.3692C91.1328 36.4177 91.9975 37.2514 93.0914 37.8701C94.1852 38.4889 95.3708 38.795 96.6547 38.795C97.9385 38.795 99.1241 38.4889 100.218 37.8701ZM100.303 32.0345C99.9626 32.5035 99.4713 32.8356 98.8228 33.0245L101.056 36.548H98.6197L96.5826 33.2264H94.7682V36.548H92.6459V27.3517H97.3621C98.456 27.3517 99.301 27.6122 99.9101 28.1333C100.513 28.6543 100.821 29.3708 100.821 30.2761C100.821 30.9795 100.65 31.5656 100.31 32.0345H100.303ZM94.7748 31.6633H96.9691C97.5128 31.6633 97.932 31.5395 98.2202 31.2986C98.5084 31.0576 98.6525 30.7124 98.6525 30.2761C98.6525 29.8658 98.5084 29.5401 98.2202 29.2991C97.932 29.0581 97.5128 28.9344 96.9691 28.9344H94.7748V31.6633Z" fill="black"/>
<path d="M39.3794 45.4903V45.6726C39.3794 47.0338 39.6677 48.89 41.9078 50.1535C43.5257 51.0588 46.2441 51.378 48.2485 51.378C50.0629 51.378 52.5847 51.1956 54.1633 50.4271C56.2135 49.4306 56.6459 47.8936 56.6459 46.8059C56.6459 45.4447 55.9777 44.4091 54.4974 43.6341C53.3052 43.0023 51.7332 42.6376 49.1065 42.1882L44.8161 41.4653C40.0017 40.6512 36.4711 39.9738 34.4668 38.2544C33.1305 37.1212 32.2266 35.4473 32.2266 32.9594C32.2266 29.7029 33.6087 27.1629 36.7528 25.3067C39.9952 23.4049 44.0498 23.0467 47.3838 23.0467C54.3467 23.0467 57.4908 24.6293 58.2572 25.0396C62.5935 27.3452 62.9799 30.8361 62.9799 32.6858H55.4472C55.4013 31.4614 54.969 30.0155 52.8729 28.9735C51.3467 28.205 49.1524 28.0226 47.2004 28.0226C45.5301 28.0226 43.7222 28.2049 42.196 28.9279C39.9559 29.97 39.6677 31.4614 39.6677 32.2755C39.6677 34.1773 41.1939 34.8546 42.2419 35.265C43.8598 35.8967 45.7201 36.1247 48.7725 36.6262L52.5389 37.2123C55.6371 37.7073 58.8795 38.3456 61.0738 39.9282C63.7463 41.8756 64.2179 44.3635 64.2179 46.4021C64.2179 50.8374 61.9777 53.3254 59.6917 54.641C56.8293 56.2692 52.9188 56.5427 49.1524 56.5427C43.7616 56.5427 40.2375 56.0933 37.5192 54.9145C32.6589 52.7848 31.7026 48.8965 31.7026 45.6336V45.4968H39.3794V45.4903Z" fill="black"/>
<path d="M130.971 29.6899V29.6834H157.441V24.1474H124.591V29.6899H130.971Z" fill="black"/>
<path d="M130.971 49.8865V42.1101H154.749V36.5676H132.393H130.971H124.591V55.4225H157.893V49.8865H130.971Z" fill="black"/>
<path d="M270.852 29.7485V29.742H297.321V24.206H264.472V29.7485H270.852Z" fill="black"/>
<path d="M270.852 49.9451V42.1687H294.622V36.6262H272.273H270.852H264.472V55.4811H297.773V49.9451H270.852Z" fill="black"/>
<path d="M426.557 24.206H418.553L401.476 55.4811H408.531L412.474 48.1867L416.404 40.7619L416.437 40.7814L422.463 29.5661L428.227 40.3646L428.247 40.3516L432.374 48.1541H432.393L436.35 55.4811H443.634L426.557 24.206Z" fill="black"/>
</svg>
