<svg width="740" height="67" viewBox="0 0 740 67" fill="none" xmlns="http://www.w3.org/2000/svg">
<path d="M217.813 50.379V17.7365H224.433V44.5954H250.544V50.379H217.813Z" fill="black"/>
<path d="M258.781 50.379V17.7365H265.401V50.379H258.781Z" fill="black"/>
<path d="M289.093 50.379V23.5201H273.563V17.7365H311.242V23.5201H295.713V50.379H289.093Z" fill="black"/>
<path d="M390.704 50.379V23.5201H375.175V17.7365H412.854V23.5201H397.324V50.379H390.704Z" fill="black"/>
<path d="M421.043 50.379V17.7365H443.892C450.838 17.7365 455.5 21.5152 455.5 26.7347C455.5 30.7921 452.843 33.7281 449.39 34.7068C453.217 34.7068 454.705 36.3855 454.705 39.5118V50.379H448.085V41.3332C448.085 38.8117 447.107 38.071 444.585 38.071H427.663V50.379H421.043ZM427.663 32.2873H443.002C446.638 32.2873 448.785 30.5135 448.785 27.8561C448.785 25.0629 446.638 23.5201 443.002 23.5201H427.663V32.2873Z" fill="black"/>
<path d="M512.433 50.379V17.7365H519.052V50.379H512.433Z" fill="black"/>
<path d="M560.333 17.7433H566.953V50.3859H558.654L537.253 25.4842V50.3859H530.633V17.7433H538.932L560.333 42.6449V17.7433Z" fill="black"/>
<path d="M578.547 50.379V17.7365H585.167V50.379H578.547Z" fill="black"/>
<path d="M626.447 17.7433H633.067V50.3859H624.769L603.367 25.4842V50.3859H596.748V17.7433H605.046L626.447 42.6449V17.7433Z" fill="black"/>
<path d="M642.555 34.0612C642.555 24.2677 650.622 17.2743 664.425 17.2743C676.455 17.2743 683.033 22.4463 683.965 28.9299H676.502C676.033 26.6464 672.866 23.0512 664.847 23.0512H663.915C655.339 23.0512 649.276 27.0134 649.276 34.0544C649.276 41.0953 654.917 45.0576 663.732 45.0576H664.663C673.525 45.0576 678.093 41.9789 678.093 38.8526V38.7098H663.732V32.9262H680.288C683.407 32.9262 684.719 35.0262 684.719 37.3574V50.3655H678.099V46.1246C676.468 48.0819 672.506 50.8344 664.208 50.8344C650.078 50.8344 642.575 43.841 642.575 34.0476L642.555 34.0612Z" fill="black"/>
<path d="M61.2947 50.3791V17.7365H67.9143V50.3791H61.2947Z" fill="#94E522"/>
<path d="M122.271 50.3791V17.7365H128.891V50.3791H122.271Z" fill="#94E522"/>
<path d="M149.762 18.4025C151.121 19.1705 152.202 20.2103 152.997 21.5288C153.792 22.8473 154.193 24.2745 154.193 25.824C154.193 27.3736 153.792 28.8008 152.997 30.1193C152.202 31.4378 151.121 32.4776 149.762 33.2456C148.396 34.0136 146.914 34.3942 145.304 34.3942C143.693 34.3942 142.211 34.0136 140.845 33.2456C139.479 32.4776 138.405 31.4378 137.61 30.1193C136.815 28.8008 136.414 27.3736 136.414 25.824C136.414 24.2745 136.815 22.8473 137.61 21.5288C138.405 20.2103 139.486 19.1705 140.845 18.4025C142.205 17.6345 143.693 17.2539 145.304 17.2539C146.914 17.2539 148.396 17.6345 149.762 18.4025ZM149.008 32.0019C150.143 31.3562 151.04 30.4931 151.706 29.3921C152.372 28.2979 152.705 27.1085 152.705 25.824C152.705 24.5395 152.372 23.3502 151.706 22.256C151.04 21.1618 150.143 20.2919 149.008 19.6462C147.873 19.0006 146.643 18.6812 145.31 18.6812C143.978 18.6812 142.748 19.0006 141.613 19.6462C140.478 20.2919 139.581 21.155 138.915 22.256C138.249 23.3502 137.916 24.5395 137.916 25.824C137.916 27.1085 138.249 28.2979 138.915 29.3921C139.581 30.4863 140.478 31.3562 141.613 32.0019C142.748 32.6475 143.978 32.967 145.31 32.967C146.643 32.967 147.873 32.6475 149.008 32.0019ZM149.096 25.9124C148.743 26.4017 148.233 26.7483 147.56 26.9454L149.878 30.6223H147.349L145.236 27.1561H143.353V30.6223H141.151V21.0259H146.044C147.179 21.0259 148.056 21.2977 148.688 21.8414C149.314 22.3851 149.633 23.1327 149.633 24.0774C149.633 24.8114 149.456 25.4231 149.103 25.9124H149.096ZM143.36 25.525H145.637C146.201 25.525 146.636 25.3959 146.935 25.1444C147.234 24.8929 147.383 24.5328 147.383 24.0774C147.383 23.6493 147.234 23.3094 146.935 23.058C146.636 22.8065 146.201 22.6774 145.637 22.6774H143.36V25.525Z" fill="#94E522"/>
<path d="M85.8837 39.9536V40.1438C85.8837 41.5643 86.1827 43.5012 88.5071 44.8197C90.1857 45.7644 93.0062 46.0974 95.0859 46.0974C96.9684 46.0974 99.585 45.9071 101.223 45.1052C103.35 44.0653 103.799 42.4614 103.799 41.3264C103.799 39.906 103.105 38.8254 101.57 38.0166C100.333 37.3574 98.7015 36.9768 95.9762 36.5078L91.5246 35.7535C86.5293 34.9039 82.8661 34.1971 80.7865 32.4029C79.4 31.2203 78.4621 29.4737 78.4621 26.8775C78.4621 23.4793 79.8961 20.8288 83.1584 18.8918C86.5225 16.9073 90.7294 16.5335 94.1888 16.5335C101.413 16.5335 104.675 18.185 105.471 18.6132C109.97 21.0191 110.371 24.6619 110.371 26.592H102.555C102.507 25.3143 102.059 23.8056 99.8841 22.7182C98.3005 21.9162 96.0238 21.7259 93.9985 21.7259C92.2654 21.7259 90.3896 21.9162 88.8061 22.6706C86.4818 23.758 86.1827 25.3143 86.1827 26.1639C86.1827 28.1484 87.7663 28.8552 88.8537 29.2834C90.5324 29.9426 92.4625 30.1805 95.6296 30.7038L99.5374 31.3155C102.752 31.832 106.116 32.498 108.393 34.1495C111.166 36.1816 111.655 38.7778 111.655 40.905C111.655 45.5333 109.331 48.1295 106.959 49.5023C103.989 51.2014 99.9316 51.4869 96.0238 51.4869C90.4304 51.4869 86.774 51.0179 83.9535 49.7878C78.9107 47.5654 77.9184 43.508 77.9184 40.1031V39.9604H85.8837V39.9536Z" fill="#94E522"/>
<path d="M180.916 23.4658V23.459H208.38V17.6821H174.297V23.4658H180.916Z" fill="black"/>
<path d="M180.916 44.5411V36.4263H205.587V30.6426H182.391H180.916H174.297V50.3179H208.849V44.5411H180.916Z" fill="black"/>
<path d="M326.051 23.5269V23.5201H353.515V17.7433H319.432V23.5269H326.051Z" fill="black"/>
<path d="M326.051 44.6022V36.4874H350.715V30.7038H327.526H326.051H319.432V50.3791H353.984V44.6022H326.051Z" fill="black"/>
<path d="M487.606 17.7433H479.301L461.583 50.3791H468.902L472.994 42.7673L477.072 35.0195L477.106 35.0399L483.358 23.3366L489.339 34.6049L489.359 34.5913L493.641 42.7332H493.661L497.766 50.3791H505.324L487.606 17.7433Z" fill="black"/>
</svg>
