<?xml version="1.0" encoding="UTF-8"?>
<svg id="Layer_1" data-name="Layer 1" xmlns="http://www.w3.org/2000/svg" viewBox="0 0 1080 1080">
  <path d="M311.66,564.1v-48.03h9.74v39.52h38.42v8.51h-48.16Z"/>
  <path d="M371.94,564.1v-48.03h9.74v48.03h-9.74Z"/>
  <path d="M416.54,564.1v-39.52h-22.85v-8.51h55.44v8.51h-22.85v39.52h-9.74Z"/>
  <path d="M566.05,564.1v-39.52h-22.85v-8.51h55.44v8.51h-22.85v39.52h-9.74Z"/>
  <path d="M610.69,564.1v-48.03h33.62c10.22,0,17.08,5.56,17.08,13.24,0,5.97-3.91,10.29-8.99,11.73,5.63,0,7.82,2.47,7.82,7.07v15.99h-9.74v-13.31c0-3.71-1.44-4.8-5.15-4.8h-24.9v18.11h-9.74ZM620.43,537.48h22.57c5.35,0,8.51-2.61,8.51-6.52,0-4.11-3.16-6.38-8.51-6.38h-22.57v12.9Z"/>
  <path d="M745.16,564.1v-48.03h9.74v48.03h-9.74Z"/>
  <path d="M815.64,516.08h9.74v48.03h-12.21l-31.49-36.64v36.64h-9.74v-48.03h12.21l31.49,36.64v-36.64Z"/>
  <path d="M842.44,564.1v-48.03h9.74v48.03h-9.74Z"/>
  <path d="M912.92,516.08h9.74v48.03h-12.21l-31.49-36.64v36.64h-9.74v-48.03h12.21l31.49,36.64v-36.64Z"/>
  <path d="M936.62,540.09c0-14.41,11.87-24.7,32.18-24.7,17.7,0,27.38,7.61,28.75,17.15h-10.98c-.69-3.36-5.35-8.65-17.15-8.65h-1.37c-12.62,0-21.54,5.83-21.54,16.19s8.3,16.19,21.27,16.19h1.37c13.04,0,19.76-4.53,19.76-9.13v-.21h-21.13v-8.51h24.36c4.59,0,6.52,3.09,6.52,6.52v19.14h-9.74v-6.24c-2.4,2.88-8.23,6.93-20.44,6.93-20.79,0-31.83-10.29-31.83-24.7Z"/>
  <g>
    <path d="M81.36,564.1v-48.03h9.74v48.03h-9.74Z"/>
    <path d="M171.08,564.1v-48.03h9.74v48.03h-9.74Z"/>
    <path d="M211.53,517.05c2,1.13,3.59,2.66,4.76,4.6,1.17,1.94,1.76,4.04,1.76,6.32s-.59,4.38-1.76,6.32c-1.17,1.94-2.76,3.47-4.76,4.6-2.01,1.13-4.19,1.69-6.56,1.69s-4.55-.56-6.56-1.69c-2.01-1.13-3.59-2.66-4.76-4.6-1.17-1.94-1.76-4.04-1.76-6.32s.59-4.38,1.76-6.32c1.17-1.94,2.76-3.47,4.76-4.6,2-1.13,4.19-1.69,6.56-1.69s4.55.56,6.56,1.69ZM210.42,537.06c1.67-.95,2.99-2.22,3.97-3.84.98-1.61,1.47-3.36,1.47-5.25s-.49-3.64-1.47-5.25c-.98-1.61-2.3-2.89-3.97-3.84-1.67-.95-3.48-1.42-5.44-1.42s-3.77.47-5.44,1.42c-1.67.95-2.99,2.22-3.97,3.84-.98,1.61-1.47,3.36-1.47,5.25s.49,3.64,1.47,5.25c.98,1.61,2.3,2.89,3.97,3.84,1.67.95,3.48,1.42,5.44,1.42s3.77-.47,5.44-1.42ZM210.55,528.1c-.52.72-1.27,1.23-2.26,1.52l3.41,5.41h-3.72l-3.11-5.1h-2.77v5.1h-3.24v-14.12h7.2c1.67,0,2.96.4,3.89,1.2.92.8,1.39,1.9,1.39,3.29,0,1.08-.26,1.98-.78,2.7ZM202.11,527.53h3.35c.83,0,1.47-.19,1.91-.56.44-.37.66-.9.66-1.57,0-.63-.22-1.13-.66-1.5s-1.08-.56-1.91-.56h-3.35v4.19Z"/>
    <path d="M117.54,548.76v.28c0,2.09.44,4.94,3.86,6.88,2.47,1.39,6.62,1.88,9.68,1.88,2.77,0,6.62-.28,9.03-1.46,3.13-1.53,3.79-3.89,3.79-5.56,0-2.09-1.02-3.68-3.28-4.87-1.82-.97-4.22-1.53-8.23-2.22l-6.55-1.11c-7.35-1.25-12.74-2.29-15.8-4.93-2.04-1.74-3.42-4.31-3.42-8.13,0-5,2.11-8.9,6.91-11.75,4.95-2.92,11.14-3.47,16.23-3.47,10.63,0,15.43,2.43,16.6,3.06,6.62,3.54,7.21,8.9,7.21,11.74h-11.5c-.07-1.88-.73-4.1-3.93-5.7-2.33-1.18-5.68-1.46-8.66-1.46-2.55,0-5.31.28-7.64,1.39-3.42,1.6-3.86,3.89-3.86,5.14,0,2.92,2.33,3.96,3.93,4.59,2.47.97,5.31,1.32,9.97,2.09l5.75.9c4.73.76,9.68,1.74,13.03,4.17,4.08,2.99,4.8,6.81,4.8,9.94,0,6.81-3.42,10.63-6.91,12.65-4.37,2.5-10.34,2.92-16.09,2.92-8.23,0-13.61-.69-17.76-2.5-7.42-3.27-8.88-9.24-8.88-14.25v-.21h11.72Z"/>
  </g>
  <g>
    <polygon points="257.37 524.5 257.37 524.49 297.78 524.49 297.78 515.99 247.63 515.99 247.63 524.5 257.37 524.5"/>
    <polygon points="257.37 555.51 257.37 543.57 293.67 543.57 293.67 535.06 259.54 535.06 257.37 535.06 247.63 535.06 247.63 564.01 298.47 564.01 298.47 555.51 257.37 555.51"/>
  </g>
  <g>
    <polygon points="470.92 524.59 470.92 524.58 511.33 524.58 511.33 516.08 461.18 516.08 461.18 524.59 470.92 524.59"/>
    <polygon points="470.92 555.6 470.92 543.66 507.21 543.66 507.21 535.15 473.09 535.15 470.92 535.15 461.18 535.15 461.18 564.1 512.02 564.1 512.02 555.6 470.92 555.6"/>
  </g>
  <polygon points="708.63 516.08 696.41 516.08 670.34 564.1 681.11 564.1 687.13 552.9 693.13 541.5 693.18 541.53 702.38 524.31 711.18 540.89 711.21 540.87 717.51 552.85 717.54 552.85 723.58 564.1 734.7 564.1 708.63 516.08"/>
</svg>