<svg width="463" height="80" viewBox="0 0 463 80" fill="none" xmlns="http://www.w3.org/2000/svg">
<path d="M17.6335 0.00390625H28.0155L10.382 79.9301H0L17.6335 0.00390625Z" fill="#94E522"/>
<path d="M51.6859 0.00583522C52.7487 -0.0376753 53.8069 0.162635 54.7734 0.590236C55.7398 1.01784 56.5868 1.66047 57.2443 2.4651C57.9025 3.28806 58.3569 4.24472 58.5728 5.26222C58.7887 6.27972 58.7604 7.33121 58.4901 8.33661L54.4651 26.7811H44.0831L47.2775 11.8411C47.5012 10.7037 47.022 10.1503 45.872 10.1503H42.5178C42.2702 10.1336 42.0215 10.1641 41.7862 10.2402C41.5509 10.3162 41.3335 10.4362 41.1465 10.5933C40.9595 10.7504 40.8065 10.9415 40.6965 11.1556C40.5865 11.3698 40.5215 11.6027 40.5053 11.8411L37.3108 26.1663C37.1804 26.4928 37.1804 26.8542 37.3108 27.1807L47.9164 45.0412C48.5615 46.1262 48.9705 47.3261 49.1188 48.568C49.2671 49.8098 49.1515 51.0677 48.7789 52.2653L44.722 71.5091C44.1613 73.8385 42.7853 75.9116 40.8247 77.3806C38.9974 78.9355 36.6512 79.8081 34.2122 79.8398H23.6704C22.6069 79.8884 21.5469 79.6904 20.5796 79.2624C19.6123 78.8344 18.766 78.189 18.112 77.3806C17.429 76.5704 16.9591 75.6137 16.7422 74.5916C16.5253 73.5694 16.5679 72.512 16.8662 71.5091L20.8912 53.0645H31.2732L28.0788 68.0661C27.8552 69.142 28.3024 69.6953 29.4204 69.6953H32.9024C33.4011 69.7386 33.8975 69.5923 34.2856 69.2878C34.6736 68.9833 34.9224 68.5448 34.9788 68.0661L38.333 52.2653C38.4123 52.1071 38.4534 51.9337 38.4534 51.7581C38.4534 51.5824 38.4123 51.409 38.333 51.2508L27.8552 33.1137C26.6247 30.9445 26.2937 28.4072 26.9288 26.0126L30.7941 8.33661C31.3448 6.00316 32.7228 3.92711 34.6913 2.4651C36.5125 0.900574 38.8627 0.026535 41.3039 0.00583522H51.6859Z" fill="#94E522"/>
<path d="M64.9753 0.00390625H75.3573L57.7238 79.9301H47.3418L64.9753 0.00390625Z" fill="#94E522"/>
<path d="M126.118 0.00390625L123.913 9.99468H108.356L103.213 33.2655H111.806L109.602 43.2563H100.977L95.0992 69.8471H110.656L108.612 79.9301H82.5449L100.178 0.00390625H126.118ZM84.5894 78.1472H106.951L108.612 71.5071H93.0547L99.6673 41.5963H108.292L109.762 34.9563H101.105L106.983 8.33468H122.508L124.041 1.66391H101.68L84.5894 78.1472Z" fill="#231F20"/>
<path d="M141.131 0.00390625L125.702 69.8471H141.259L139.055 79.9301H113.116L130.749 0.00390625H141.131ZM115.224 78.1472H137.585L139.119 71.5071H123.626L139.055 1.66391H132.155L115.224 78.1472Z" fill="#231F20"/>
<path d="M161.321 0.00390625H171.703L154.069 79.9301H143.751L161.321 0.00390625ZM145.795 78.1472H152.695L169.626 1.66391H162.726L145.795 78.1472Z" fill="#231F20"/>
<path d="M204.03 0.00390625L201.826 9.99468H193.169L177.74 79.9301H167.358L182.787 9.99468H174.162L176.366 0.00390625H204.03ZM176.239 8.33468H184.896L169.307 78.1472H176.239L191.668 8.33468H200.293L201.922 1.66391H177.74L176.239 8.33468Z" fill="#231F20"/>
<path d="M234.601 0.00390625L232.397 9.99468H216.84L211.665 33.2655H220.418L218.214 43.2563H209.461L203.615 69.8471H219.172L216.968 79.9301H191.029L208.662 0.00390625H234.601ZM193.073 78.1472H215.435L217.223 71.5071H201.539L208.151 41.5963H216.776L218.246 34.9563H209.589L215.467 8.33468H230.992L232.493 1.66391H210.132L193.073 78.1472Z" fill="#231F20"/>
<path d="M266.898 0.00390625L264.694 9.99468H256.069L240.639 79.9301H230.257L245.687 9.99468H237.03L239.234 0.00390625H266.898Z" fill="#231F20"/>
<path d="M290.697 0.00520613C291.764 -0.0357611 292.826 0.165511 293.797 0.592744C294.768 1.01998 295.621 1.66117 296.287 2.46447C296.933 3.29316 297.378 4.25102 297.588 5.2673C297.798 6.28357 297.768 7.33229 297.501 8.33598L293.092 28.3175C292.206 32.1959 290.017 35.6854 286.863 38.2468C287.888 39.6917 288.58 41.3303 288.894 43.0531C289.208 44.776 289.136 46.5435 288.684 48.2376L281.592 79.9314H271.21L278.174 48.3298C278.354 47.731 278.382 47.0996 278.256 46.4883C278.13 45.877 277.853 45.3036 277.45 44.816C277.046 44.3285 276.528 43.941 275.937 43.6859C275.346 43.4308 274.7 43.3156 274.053 43.3498H272.36L264.31 79.9314H253.928L271.53 0.00520613H290.697ZM276.258 33.2668C277.746 33.2698 279.186 32.7569 280.315 31.822C281.468 30.9403 282.269 29.7023 282.583 28.3175L286.288 11.6867C286.512 10.5493 286.065 9.99598 284.883 9.99598H279.74L274.724 33.2668H276.258Z" fill="#231F20"/>
<path d="M327.241 0.00390625L316.508 79.9301H306.126L307.467 69.9393H299.673L296.478 79.9301H286.224L310.758 0.00390625H327.241ZM302.771 59.9178H308.777L313.441 25.1807L302.771 59.9178Z" fill="#231F20"/>
<path d="M338.773 0.00390625H349.155L331.522 79.9301H321.14L338.773 0.00390625Z" fill="#231F20"/>
<path d="M383.336 0.00390625L365.671 79.9301H355.576L354.586 43.2255L346.568 79.9301H336.186L353.82 0.00390625H364.17L365 34.9563L372.827 0.00390625H383.336Z" fill="#231F20"/>
<path d="M387.808 0.00390625H398.19L380.557 79.9301H370.175L387.808 0.00390625Z" fill="#231F20"/>
<path d="M432.18 0.00390625L414.546 79.9301H404.452L403.653 43.3178L395.571 79.9301H385.189L402.822 0.00390625H413.332L414.131 34.9563L421.861 0.00390625H432.18Z" fill="#231F20"/>
<path d="M455.851 0.00583522C456.914 -0.0376753 457.972 0.162635 458.938 0.590236C459.905 1.01784 460.752 1.66047 461.409 2.4651C462.062 3.29064 462.511 4.24852 462.721 5.26593C462.931 6.28334 462.898 7.3335 462.623 8.33661L458.63 26.7811H448.248L451.442 11.8411C451.666 10.7037 451.187 10.1503 450.037 10.1503H446.555C446.053 10.1243 445.561 10.2856 445.18 10.6006C444.799 10.9156 444.559 11.36 444.51 11.8411L431.988 68.3735C431.764 69.4494 432.212 70.0028 433.33 70.0028H436.812C437.31 70.046 437.807 69.8997 438.195 69.5952C438.583 69.2907 438.832 68.8522 438.888 68.3735L444.415 43.4119H440.933L443.137 33.4211H457.001L448.599 71.6628C448.039 73.9922 446.663 76.0653 444.702 77.5343C442.875 79.0892 440.529 79.9618 438.089 79.9935H427.707C426.64 80.0395 425.576 79.8404 424.604 79.4128C423.632 78.9852 422.78 78.3413 422.117 77.5343C421.447 76.7177 420.987 75.7598 420.776 74.7391C420.565 73.7184 420.609 72.6641 420.903 71.6628L434.831 8.49031C435.367 6.07774 436.798 3.93571 438.856 2.4651C440.677 0.900574 443.028 0.026535 445.469 0.00583522H455.851Z" fill="#231F20"/>
<path d="M92.2241 4.09591C91.5022 2.93971 90.4778 1.98584 89.2532 1.32942C87.9952 0.664832 86.5833 0.316406 85.1482 0.316406C83.7131 0.316406 82.3012 0.664832 81.0432 1.32942C79.8186 1.98584 78.7942 2.93971 78.0723 4.09591C77.3506 5.24523 76.9746 6.56473 76.9861 7.90751C76.966 9.25135 77.3426 10.5731 78.0723 11.7191C78.8024 12.8771 79.8242 13.8391 81.0432 14.5163C82.3012 15.1809 83.7131 15.5294 85.1482 15.5294C86.5833 15.5294 87.9952 15.1809 89.2532 14.5163C90.4722 13.8391 91.494 12.8771 92.2241 11.7191C92.9538 10.5731 93.3304 9.25135 93.3103 7.90751C93.3218 6.56473 92.9458 5.24523 92.2241 4.09591ZM91.0102 11.0736C90.3999 12.0251 89.555 12.817 88.5504 13.379C87.5053 13.9225 86.3361 14.207 85.1482 14.207C83.9603 14.207 82.7911 13.9225 81.746 13.379C80.7414 12.817 79.8965 12.0251 79.2862 11.0736C78.7003 10.1475 78.3908 9.08396 78.3917 7.99973C78.4034 6.91719 78.712 5.85682 79.2862 4.92585C79.862 3.90864 80.7116 3.05925 81.746 2.46675C82.7845 1.90388 83.9563 1.60816 85.1482 1.60816C86.3401 1.60816 87.5119 1.90388 88.5504 2.46675C89.5603 3.00835 90.4077 3.7919 91.0102 4.74142C91.5844 5.67239 91.893 6.73276 91.9047 7.81529C91.942 8.96196 91.6311 10.0942 91.0102 11.0736Z" fill="#94E522"/>
<path d="M86.6338 8.71061C87.0804 8.60687 87.4757 8.35694 87.7519 8.00362C88.0195 7.62364 88.1538 7.17126 88.1352 6.71259C88.1503 6.42148 88.0946 6.13099 87.9726 5.8642C87.8506 5.5974 87.6656 5.36165 87.4324 5.17566C86.9045 4.7569 86.2303 4.54798 85.5476 4.59162H81.9697V11.2619H83.6309V8.8643H84.9407L86.4421 11.2619H88.2949L86.6338 8.71061ZM86.2504 7.45032C85.9855 7.64539 85.6571 7.74345 85.324 7.72697H83.7267V5.75969H85.324C85.6698 5.7924 85.995 5.93269 86.2504 6.1593C86.4495 6.34532 86.5642 6.59935 86.5699 6.86629C86.534 7.08979 86.4216 7.29535 86.2504 7.45032Z" fill="#94E522"/>
</svg>
