<svg width="441" height="42" viewBox="0 0 441 42" fill="none" xmlns="http://www.w3.org/2000/svg">
<path d="M117.875 32.3929V9.20605H122.314V28.2847H139.822V32.3929H117.875Z" fill="black"/>
<path d="M145.348 32.3929V9.20605H149.786V32.3929H145.348Z" fill="black"/>
<path d="M165.671 32.3929V13.3143H155.258V9.20605H180.523V13.3143H170.11V32.3929H165.671Z" fill="black"/>
<path d="M233.804 32.3929V13.3143H223.391V9.20605H248.655V13.3143H238.242V32.3929H233.804Z" fill="black"/>
<path d="M254.148 32.3929V9.20605H269.47C274.127 9.20605 277.253 11.8902 277.253 15.5978C277.253 18.4798 275.471 20.5654 273.156 21.2605C275.722 21.2605 276.72 22.4529 276.72 24.6736V32.3929H272.281V25.9674C272.281 24.1764 271.625 23.6502 269.934 23.6502H258.587V32.3929H254.148ZM258.587 19.5419H268.873C271.311 19.5419 272.751 18.2819 272.751 16.3943C272.751 14.4102 271.311 13.3143 268.873 13.3143H258.587V19.5419Z" fill="black"/>
<path d="M315.43 32.3929V9.20605H319.868V32.3929H315.43Z" fill="black"/>
<path d="M347.548 9.21094H351.986V32.3978H346.422L332.071 14.7095V32.3978H327.633V9.21094H333.197L347.548 26.8992V9.21094Z" fill="black"/>
<path d="M359.762 32.3929V9.20605H364.2V32.3929H359.762Z" fill="black"/>
<path d="M391.88 9.21094H396.318V32.3978H390.754L376.404 14.7095V32.3978H371.965V9.21094H377.529L391.88 26.8992V9.21094Z" fill="black"/>
<path d="M402.68 20.8021C402.68 13.8455 408.089 8.87793 417.345 8.87793C425.411 8.87793 429.822 12.5517 430.446 17.1572H425.443C425.128 15.5352 423.005 12.9814 417.627 12.9814H417.003C411.252 12.9814 407.187 15.7959 407.187 20.7972C407.187 25.7986 410.969 28.6131 416.88 28.6131H417.504C423.447 28.6131 426.509 26.4262 426.509 24.2055V24.1041H416.88V19.9958H427.981C430.073 19.9958 430.952 21.4876 430.952 23.1434V32.3834H426.514V29.371C425.42 30.7614 422.763 32.7166 417.199 32.7166C407.724 32.7166 402.693 27.749 402.693 20.7924L402.68 20.8021Z" fill="black"/>
<path d="M12.9219 32.3929V9.20605H17.3605V32.3929H12.9219Z" fill="black"/>
<path d="M53.8086 32.3929V9.20605H58.2473V32.3929H53.8086Z" fill="black"/>
<path d="M72.2432 9.67914C73.1546 10.2247 73.8792 10.9633 74.4124 11.8999C74.9456 12.8364 75.2145 13.8502 75.2145 14.9509C75.2145 16.0516 74.9456 17.0653 74.4124 18.0019C73.8792 18.9385 73.1546 19.6771 72.2432 20.2226C71.3272 20.7681 70.3338 21.0385 69.2537 21.0385C68.1737 21.0385 67.1802 20.7681 66.2642 20.2226C65.3482 19.6771 64.6282 18.9385 64.095 18.0019C63.5618 17.0653 63.293 16.0516 63.293 14.9509C63.293 13.8502 63.5618 12.8364 64.095 11.8999C64.6282 10.9633 65.3528 10.2247 66.2642 9.67914C67.1757 9.13363 68.1737 8.86328 69.2537 8.86328C70.3338 8.86328 71.3272 9.13363 72.2432 9.67914ZM71.7374 19.3391C72.4984 18.8805 73.1 18.2674 73.5466 17.4853C73.9932 16.7081 74.2165 15.8633 74.2165 14.9509C74.2165 14.0384 73.9932 13.1936 73.5466 12.4164C73.1 11.6391 72.4984 11.0212 71.7374 10.5626C70.9763 10.104 70.1515 9.87709 69.2583 9.87709C68.3651 9.87709 67.5402 10.104 66.7792 10.5626C66.0181 11.0212 65.4166 11.6343 64.97 12.4164C64.5234 13.1936 64.3001 14.0384 64.3001 14.9509C64.3001 15.8633 64.5234 16.7081 64.97 17.4853C65.4166 18.2626 66.0181 18.8805 66.7792 19.3391C67.5402 19.7978 68.3651 20.0247 69.2583 20.0247C70.1515 20.0247 70.9763 19.7978 71.7374 19.3391ZM71.7966 15.0136C71.5596 15.3612 71.2179 15.6074 70.7667 15.7474L72.3207 18.3592H70.6254L69.2082 15.8971H67.9458V18.3592H66.4693V11.5426H69.7505C70.5115 11.5426 71.0994 11.7357 71.5232 12.1219C71.9424 12.5081 72.1566 13.0392 72.1566 13.7102C72.1566 14.2316 72.0381 14.666 71.8012 15.0136H71.7966ZM67.9504 14.7385H69.477C69.8553 14.7385 70.1469 14.6467 70.3474 14.4681C70.548 14.2895 70.6482 14.0336 70.6482 13.7102C70.6482 13.4061 70.548 13.1647 70.3474 12.9861C70.1469 12.8074 69.8553 12.7157 69.477 12.7157H67.9504V14.7385Z" fill="black"/>
<path d="M29.4074 24.9874V25.1226C29.4074 26.1316 29.6079 27.5074 31.1665 28.444C32.2921 29.115 34.1833 29.3516 35.5778 29.3516C36.8401 29.3516 38.5946 29.2164 39.6929 28.6468C41.1193 27.9081 41.42 26.7688 41.42 25.9626C41.42 24.9537 40.9552 24.186 39.9253 23.6116C39.0959 23.1433 38.0022 22.8729 36.1748 22.5398L33.1898 22.004C29.8403 21.4005 27.384 20.8985 25.9895 19.624C25.0599 18.784 24.431 17.5433 24.431 15.6992C24.431 13.2854 25.3925 11.4026 27.58 10.0268C29.8358 8.6171 32.6566 8.35156 34.9762 8.35156C39.8205 8.35156 42.0079 9.52466 42.5411 9.8288C45.5579 11.5378 45.8268 14.1253 45.8268 15.4964H40.5861C40.5542 14.5888 40.2534 13.5171 38.7951 12.7447C37.7333 12.175 36.2067 12.0398 34.8486 12.0398C33.6866 12.0398 32.4288 12.175 31.367 12.7109C29.8084 13.4833 29.6079 14.5888 29.6079 15.1922C29.6079 16.6019 30.6697 17.104 31.3989 17.4081C32.5245 17.8764 33.8187 18.0454 35.9424 18.4171L38.5627 18.8516C40.7182 19.2185 42.974 19.6916 44.5007 20.8647C46.36 22.3081 46.6881 24.1522 46.6881 25.6633C46.6881 28.9509 45.1296 30.795 43.5391 31.7702C41.5477 32.9771 38.827 33.1798 36.2067 33.1798C32.4561 33.1798 30.0044 32.8467 28.1132 31.9729C24.7317 30.3943 24.0664 27.5122 24.0664 25.0936V24.9923H29.4074V24.9874Z" fill="black"/>
<path d="M93.134 13.2762V13.2714H111.549V9.16797H88.6953V13.2762H93.134Z" fill="black"/>
<path d="M93.134 28.2464V22.4823H109.676V18.374H94.1229H93.134H88.6953V32.3499H111.864V28.2464H93.134Z" fill="black"/>
<path d="M190.45 13.3192V13.3144H208.866V9.21094H186.012V13.3192H190.45Z" fill="black"/>
<path d="M190.45 28.2894V22.5252H206.988V18.417H191.439H190.45H186.012V32.3928H209.18V28.2894H190.45Z" fill="black"/>
<path d="M298.781 9.21094H293.213L281.332 32.393H286.24L288.983 26.9861L291.718 21.4827L291.741 21.4972L295.933 13.184L299.943 21.1882L299.957 21.1785L302.828 26.962H302.842L305.594 32.393H310.662L298.781 9.21094Z" fill="black"/>
</svg>
